<svg xmlns="http://www.w3.org/2000/svg" xmlns:xlink="http://www.w3.org/1999/xlink" version="1.1" width="327px" height="361px" style="shape-rendering:geometricPrecision; text-rendering:geometricPrecision; image-rendering:optimizeQuality; fill-rule:evenodd; clip-rule:evenodd">
<g><path style="opacity:1" fill="#1fb2e9" d="M 152.5,-0.5 C 159.167,-0.5 165.833,-0.5 172.5,-0.5C 176.782,1.31959 181.115,2.98626 185.5,4.5C 182.786,4.25001 180.119,4.08334 177.5,4C 179.455,4.9533 181.122,6.28663 182.5,8C 181.833,8.33333 181.167,8.66667 180.5,9C 181.672,10.997 183.005,12.8303 184.5,14.5C 184.392,15.4419 184.059,16.2753 183.5,17C 184.77,17.8996 185.77,19.0663 186.5,20.5C 187.396,19.4937 188.062,19.4937 188.5,20.5C 187.191,23.9713 187.857,27.4713 190.5,31C 189.833,31.3333 189.167,31.6667 188.5,32C 190.692,33.3587 192.359,35.1921 193.5,37.5C 192.833,37.8333 192.167,38.1667 191.5,38.5C 192.651,39.731 193.817,39.731 195,38.5C 194.496,40.862 194.663,43.1953 195.5,45.5C 197.167,47.8333 198.833,50.1667 200.5,52.5C 198.603,53.6681 198.436,55.3348 200,57.5C 200.423,56.0439 201.256,55.5439 202.5,56C 199.839,59.8843 200.839,62.7177 205.5,64.5C 203.043,66.3324 203.043,67.9991 205.5,69.5C 206.086,69.2907 206.586,68.9574 207,68.5C 207.684,69.7839 207.517,70.9505 206.5,72C 208.872,73.6191 209.538,75.6191 208.5,78C 209.08,80.5247 210.08,82.0247 211.5,82.5C 211.392,83.4419 211.059,84.2753 210.5,85C 212.774,87.3443 213.941,90.1776 214,93.5C 214.914,92.3463 215.747,92.513 216.5,94C 213.833,95.3333 213.833,96.6667 216.5,98C 216.167,98.3333 215.833,98.6667 215.5,99C 216.714,100.979 218.381,102.479 220.5,103.5C 218.314,107.55 219.314,110.883 223.5,113.5C 222.126,115.967 222.793,117.801 225.5,119C 225.079,121.087 225.079,123.253 225.5,125.5C 224.473,127.194 223.139,128.527 221.5,129.5C 210.831,117.668 197.831,109.668 182.5,105.5C 181.156,103.018 179.323,101.684 177,101.5C 177.195,99.8739 177.195,98.2072 177,96.5C 175.872,93.7932 174.372,91.2932 172.5,89C 172.957,88.586 173.291,88.086 173.5,87.5C 170.583,85.7484 168.583,83.2484 167.5,80C 167.833,79.8333 168.167,79.6667 168.5,79.5C 169.148,81.1492 170.148,82.4825 171.5,83.5C 171.736,82.7528 172.07,81.9195 172.5,81C 170.582,78.8951 168.582,77.7285 166.5,77.5C 168.143,74.4541 167.143,71.9541 163.5,70C 163.833,69.6667 164.167,69.3333 164.5,69C 163.805,63.522 162.971,58.022 162,52.5C 161.667,52.8333 161.333,53.1667 161,53.5C 159.632,52.0069 159.465,50.5069 160.5,49C 158.789,45.6199 157.456,42.4533 156.5,39.5C 156.709,38.914 157.043,38.414 157.5,38C 155.152,36.227 153.152,33.5604 151.5,30C 151.5,28 151.5,26 151.5,24C 148.899,19.7308 146.899,15.5641 145.5,11.5C 146.609,9.7859 145.942,9.11923 143.5,9.5C 143.966,7.79881 143.966,6.29881 143.5,5C 145.879,4.28382 147.879,3.11716 149.5,1.5C 150.5,0.833333 151.5,0.166667 152.5,-0.5 Z"/></g>
<g><path style="opacity:1" fill="#1fbee8" d="M 149.5,1.5 C 147.879,3.11716 145.879,4.28382 143.5,5C 143.966,6.29881 143.966,7.79881 143.5,9.5C 145.942,9.11923 146.609,9.7859 145.5,11.5C 146.899,15.5641 148.899,19.7308 151.5,24C 151.5,26 151.5,28 151.5,30C 153.152,33.5604 155.152,36.227 157.5,38C 157.043,38.414 156.709,38.914 156.5,39.5C 157.456,42.4533 158.789,45.6199 160.5,49C 159.465,50.5069 159.632,52.0069 161,53.5C 161.333,53.1667 161.667,52.8333 162,52.5C 162.971,58.022 163.805,63.522 164.5,69C 164.167,69.3333 163.833,69.6667 163.5,70C 167.143,71.9541 168.143,74.4541 166.5,77.5C 168.582,77.7285 170.582,78.8951 172.5,81C 172.07,81.9195 171.736,82.7528 171.5,83.5C 170.148,82.4825 169.148,81.1492 168.5,79.5C 168.167,79.6667 167.833,79.8333 167.5,80C 168.583,83.2484 170.583,85.7484 173.5,87.5C 173.291,88.086 172.957,88.586 172.5,89C 174.372,91.2932 175.872,93.7932 177,96.5C 177.195,98.2072 177.195,99.8739 177,101.5C 179.323,101.684 181.156,103.018 182.5,105.5C 177.853,104.704 173.186,104.037 168.5,103.5C 164.206,103.089 160.04,102.089 156,100.5C 155.667,100.833 155.333,101.167 155,101.5C 154.911,99.8866 155.745,98.7199 157.5,98C 155.289,96.2794 153.289,94.2794 151.5,92C 154.276,90.2213 153.943,89.2213 150.5,89C 151.5,88 152.5,87 153.5,86C 151.616,85.7837 149.949,85.117 148.5,84C 149.167,83.3333 149.833,82.6667 150.5,82C 149.359,79.2978 150.359,77.6311 153.5,77C 152.167,76.3333 150.833,75.6667 149.5,75C 150.28,73.927 150.113,72.7604 149,71.5C 148.667,71.8333 148.333,72.1667 148,72.5C 147.667,71.5 147.333,70.5 147,69.5C 144.356,72.3296 143.522,71.9963 144.5,68.5C 142.599,67.065 142.266,65.3983 143.5,63.5C 142.208,61.3334 141.375,59.0001 141,56.5C 139.575,55.7877 138.075,55.621 136.5,56C 137.603,54.3196 137.27,52.8196 135.5,51.5C 137.203,50.1097 137.87,48.6097 137.5,47C 133.745,44.8756 132.745,41.8756 134.5,38C 133.552,37.5172 132.552,37.3505 131.5,37.5C 131.327,34.8205 130.327,32.4872 128.5,30.5C 128.818,29.3527 129.484,28.5194 130.5,28C 126.75,24.2566 123.416,19.9233 120.5,15C 122.007,14.1627 122.507,12.9961 122,11.5C 120.224,12.5361 118.391,12.5361 116.5,11.5C 127.177,7.40953 138.177,4.0762 149.5,1.5 Z"/></g>
<g><path style="opacity:1" fill="#25abf2" d="M 185.5,4.5 C 231.702,17.6225 277.702,31.4559 323.5,46C 324.636,47.1451 325.636,48.3117 326.5,49.5C 326.5,57.5 326.5,65.5 326.5,73.5C 326.167,73.5 325.833,73.5 325.5,73.5C 325.666,65.8261 325.5,58.1594 325,50.5C 291.938,75.7408 258.771,100.741 225.5,125.5C 225.079,123.253 225.079,121.087 225.5,119C 222.793,117.801 222.126,115.967 223.5,113.5C 219.314,110.883 218.314,107.55 220.5,103.5C 218.381,102.479 216.714,100.979 215.5,99C 215.833,98.6667 216.167,98.3333 216.5,98C 213.833,96.6667 213.833,95.3333 216.5,94C 215.747,92.513 214.914,92.3463 214,93.5C 213.941,90.1776 212.774,87.3443 210.5,85C 211.059,84.2753 211.392,83.4419 211.5,82.5C 210.08,82.0247 209.08,80.5247 208.5,78C 209.538,75.6191 208.872,73.6191 206.5,72C 207.517,70.9505 207.684,69.7839 207,68.5C 206.586,68.9574 206.086,69.2907 205.5,69.5C 203.043,67.9991 203.043,66.3324 205.5,64.5C 200.839,62.7177 199.839,59.8843 202.5,56C 201.256,55.5439 200.423,56.0439 200,57.5C 198.436,55.3348 198.603,53.6681 200.5,52.5C 198.833,50.1667 197.167,47.8333 195.5,45.5C 194.663,43.1953 194.496,40.862 195,38.5C 193.817,39.731 192.651,39.731 191.5,38.5C 192.167,38.1667 192.833,37.8333 193.5,37.5C 192.359,35.1921 190.692,33.3587 188.5,32C 189.167,31.6667 189.833,31.3333 190.5,31C 187.857,27.4713 187.191,23.9713 188.5,20.5C 188.062,19.4937 187.396,19.4937 186.5,20.5C 185.77,19.0663 184.77,17.8996 183.5,17C 184.059,16.2753 184.392,15.4419 184.5,14.5C 183.005,12.8303 181.672,10.997 180.5,9C 181.167,8.66667 181.833,8.33333 182.5,8C 181.122,6.28663 179.455,4.9533 177.5,4C 180.119,4.08334 182.786,4.25001 185.5,4.5 Z"/></g>
<g><path style="opacity:1" fill="#1cc5df" d="M 116.5,11.5 C 118.391,12.5361 120.224,12.5361 122,11.5C 122.507,12.9961 122.007,14.1627 120.5,15C 123.416,19.9233 126.75,24.2566 130.5,28C 129.484,28.5194 128.818,29.3527 128.5,30.5C 130.327,32.4872 131.327,34.8205 131.5,37.5C 132.552,37.3505 133.552,37.5172 134.5,38C 132.745,41.8756 133.745,44.8756 137.5,47C 137.87,48.6097 137.203,50.1097 135.5,51.5C 137.27,52.8196 137.603,54.3196 136.5,56C 138.075,55.621 139.575,55.7877 141,56.5C 141.375,59.0001 142.208,61.3334 143.5,63.5C 142.266,65.3983 142.599,67.065 144.5,68.5C 143.522,71.9963 144.356,72.3296 147,69.5C 147.333,70.5 147.667,71.5 148,72.5C 148.333,72.1667 148.667,71.8333 149,71.5C 150.113,72.7604 150.28,73.927 149.5,75C 150.833,75.6667 152.167,76.3333 153.5,77C 150.359,77.6311 149.359,79.2978 150.5,82C 149.833,82.6667 149.167,83.3333 148.5,84C 149.949,85.117 151.616,85.7837 153.5,86C 152.5,87 151.5,88 150.5,89C 153.943,89.2213 154.276,90.2213 151.5,92C 153.289,94.2794 155.289,96.2794 157.5,98C 155.745,98.7199 154.911,99.8866 155,101.5C 155.333,101.167 155.667,100.833 156,100.5C 160.04,102.089 164.206,103.089 168.5,103.5C 154.487,102.626 141.487,105.626 129.5,112.5C 129.167,112.5 128.833,112.5 128.5,112.5C 125.001,112.741 124.668,111.908 127.5,110C 125.13,106.892 123.13,103.559 121.5,100C 121.5,98.6667 121.5,97.3333 121.5,96C 120.833,94.6667 119.833,93.6667 118.5,93C 118.833,92.6667 119.167,92.3333 119.5,92C 118.206,89.9097 117.206,87.9097 116.5,86C 116.833,85.6667 117.167,85.3333 117.5,85C 116.167,84.3333 114.833,83.6667 113.5,83C 113.647,81.0258 113.981,79.0258 114.5,77C 111.858,76.4374 111.191,74.9374 112.5,72.5C 111.376,69.8812 109.71,67.7146 107.5,66C 110.051,64.4842 109.718,63.6509 106.5,63.5C 105.915,60.751 105.915,58.0843 106.5,55.5C 105.645,54.707 104.811,55.0403 104,56.5C 103.316,55.2161 103.483,54.0495 104.5,53C 102.519,52.3946 102.185,51.3946 103.5,50C 100.388,49.1495 100.054,47.9828 102.5,46.5C 101.359,45.5745 101.359,44.7412 102.5,44C 101.5,43.6667 100.5,43.3333 99.5,43C 100.345,41.4419 99.6785,40.4419 97.5,40C 97.9574,39.586 98.2907,39.086 98.5,38.5C 97.2576,33.7525 95.2576,29.4192 92.5,25.5C 93.6682,24.0944 93.3348,22.9277 91.5,22C 87.4761,21.5027 83.4761,21.6693 79.5,22.5C 91.5664,18.2588 103.9,14.5921 116.5,11.5 Z"/></g>
<g><path style="opacity:1" fill="#1accd3" d="M 128.5,112.5 C 117.212,119.455 107.879,128.455 100.5,139.5C 100.579,137.334 101.246,135.334 102.5,133.5C 101.86,130.635 100.526,128.135 98.5,126C 99.1667,125.667 99.8333,125.333 100.5,125C 99.7433,123.488 98.7433,122.154 97.5,121C 97.3062,119.57 97.3062,118.07 97.5,116.5C 96.675,115.614 95.675,115.281 94.5,115.5C 95.7657,112.77 95.7657,110.437 94.5,108.5C 93.624,107.749 92.624,107.249 91.5,107C 90.9698,105.744 90.9698,104.244 91.5,102.5C 90.624,101.749 89.624,101.249 88.5,101C 91,100.167 91.1667,99 89,97.5C 87.3335,98.3402 87.1669,97.8402 88.5,96C 87.8333,94.6667 86.8333,93.6667 85.5,93C 86.1667,92.6667 86.8333,92.3333 87.5,92C 86.0192,89.4224 84.6859,86.7558 83.5,84C 83.6448,83.228 83.9781,82.5613 84.5,82C 83.0325,80.9025 82.1992,79.4025 82,77.5C 81.6667,77.8333 81.3333,78.1667 81,78.5C 81.0526,75.3439 79.8859,72.8439 77.5,71C 78.8333,68.6667 78.8333,66.3333 77.5,64C 74.1102,62.9938 73.1102,60.9938 74.5,58C 73.6721,57.0853 72.6721,56.4186 71.5,56C 70.8285,53.4972 70.8285,50.8305 71.5,48C 70.552,47.5172 69.552,47.3505 68.5,47.5C 68.683,45.0637 68.0163,42.897 66.5,41C 66.8333,40.6667 67.1667,40.3333 67.5,40C 66.5,39 65.5,38 64.5,37C 64.9574,36.586 65.2907,36.086 65.5,35.5C 63.6397,34.0613 61.973,32.3947 60.5,30.5C 55.8738,31.3847 51.2072,32.0513 46.5,32.5C 57.1706,28.4108 68.1706,25.0775 79.5,22.5C 83.4761,21.6693 87.4761,21.5027 91.5,22C 93.3348,22.9277 93.6682,24.0944 92.5,25.5C 95.2576,29.4192 97.2576,33.7525 98.5,38.5C 98.2907,39.086 97.9574,39.586 97.5,40C 99.6785,40.4419 100.345,41.4419 99.5,43C 100.5,43.3333 101.5,43.6667 102.5,44C 101.359,44.7412 101.359,45.5745 102.5,46.5C 100.054,47.9828 100.388,49.1495 103.5,50C 102.185,51.3946 102.519,52.3946 104.5,53C 103.483,54.0495 103.316,55.2161 104,56.5C 104.811,55.0403 105.645,54.707 106.5,55.5C 105.915,58.0843 105.915,60.751 106.5,63.5C 109.718,63.6509 110.051,64.4842 107.5,66C 109.71,67.7146 111.376,69.8812 112.5,72.5C 111.191,74.9374 111.858,76.4374 114.5,77C 113.981,79.0258 113.647,81.0258 113.5,83C 114.833,83.6667 116.167,84.3333 117.5,85C 117.167,85.3333 116.833,85.6667 116.5,86C 117.206,87.9097 118.206,89.9097 119.5,92C 119.167,92.3333 118.833,92.6667 118.5,93C 119.833,93.6667 120.833,94.6667 121.5,96C 121.5,97.3333 121.5,98.6667 121.5,100C 123.13,103.559 125.13,106.892 127.5,110C 124.668,111.908 125.001,112.741 128.5,112.5 Z"/></g>
<g><path style="opacity:1" fill="#16d1ca" d="M 100.5,139.5 C 96.6924,146.61 93.6924,153.944 91.5,161.5C 91.8957,158.956 91.229,156.789 89.5,155C 90.4491,154.383 91.2825,154.549 92,155.5C 92.1276,152.486 92.1276,149.486 92,146.5C 95.0254,147.791 95.3587,147.124 93,144.5C 92.6667,144.833 92.3333,145.167 92,145.5C 87.8438,142.865 88.3438,140.699 93.5,139C 91.481,138.55 89.6477,137.717 88,136.5C 88.6424,143.169 87.9757,143.169 86,136.5C 85.0975,135.299 83.9308,134.465 82.5,134C 84.7008,133.175 86.5341,133.675 88,135.5C 89.827,133.76 89.6603,132.093 87.5,130.5C 85.9737,132.658 84.4737,132.325 83,129.5C 82.5172,128.552 82.3505,127.552 82.5,126.5C 81.5,126.5 80.5,126.5 79.5,126.5C 79.2965,124.61 79.9632,123.11 81.5,122C 80.8333,121.667 80.1667,121.333 79.5,121C 79.5,119.667 79.5,118.333 79.5,117C 77.9095,115.954 76.4095,114.787 75,113.5C 71.4495,101.86 67.2829,89.8605 62.5,77.5C 63.4604,76.1877 63.2937,74.8544 62,73.5C 61.6667,73.8333 61.3333,74.1667 61,74.5C 57.8373,62.1336 53.6706,49.8003 48.5,37.5C 49.5092,35.8154 49.0092,34.4821 47,33.5C 43.5532,34.4894 40.0532,35.1561 36.5,35.5C 39.5046,33.7234 42.8379,32.7234 46.5,32.5C 51.2072,32.0513 55.8738,31.3847 60.5,30.5C 61.973,32.3947 63.6397,34.0613 65.5,35.5C 65.2907,36.086 64.9574,36.586 64.5,37C 65.5,38 66.5,39 67.5,40C 67.1667,40.3333 66.8333,40.6667 66.5,41C 68.0163,42.897 68.683,45.0637 68.5,47.5C 69.552,47.3505 70.552,47.5172 71.5,48C 70.8285,50.8305 70.8285,53.4972 71.5,56C 72.6721,56.4186 73.6721,57.0853 74.5,58C 73.1102,60.9938 74.1102,62.9938 77.5,64C 78.8333,66.3333 78.8333,68.6667 77.5,71C 79.8859,72.8439 81.0526,75.3439 81,78.5C 81.3333,78.1667 81.6667,77.8333 82,77.5C 82.1992,79.4025 83.0325,80.9025 84.5,82C 83.9781,82.5613 83.6448,83.228 83.5,84C 84.6859,86.7558 86.0192,89.4224 87.5,92C 86.8333,92.3333 86.1667,92.6667 85.5,93C 86.8333,93.6667 87.8333,94.6667 88.5,96C 87.1669,97.8402 87.3335,98.3402 89,97.5C 91.1667,99 91,100.167 88.5,101C 89.624,101.249 90.624,101.749 91.5,102.5C 90.9698,104.244 90.9698,105.744 91.5,107C 92.624,107.249 93.624,107.749 94.5,108.5C 95.7657,110.437 95.7657,112.77 94.5,115.5C 95.675,115.281 96.675,115.614 97.5,116.5C 97.3062,118.07 97.3062,119.57 97.5,121C 98.7433,122.154 99.7433,123.488 100.5,125C 99.8333,125.333 99.1667,125.667 98.5,126C 100.526,128.135 101.86,130.635 102.5,133.5C 101.246,135.334 100.579,137.334 100.5,139.5 Z"/></g>
<g><path style="opacity:1" fill="#24ddc2" d="M 26.5,38.5 C 28.1667,38.5 29.8333,38.5 31.5,38.5C 34.1188,50.9863 38.1188,62.4863 43.5,73C 43.0426,73.414 42.7093,73.914 42.5,74.5C 44.0542,77.7771 45.7208,80.9438 47.5,84C 47.0426,84.414 46.7093,84.914 46.5,85.5C 48.7619,86.3449 49.4286,87.6783 48.5,89.5C 49.7872,93.3493 51.1205,97.516 52.5,102C 53.5089,103.168 54.5089,104.335 55.5,105.5C 55.1658,107.335 55.1658,109.002 55.5,110.5C 56.5294,110.296 57.5294,110.796 58.5,112C 57.6919,112.308 57.0253,112.808 56.5,113.5C 57.2472,113.736 58.0805,114.07 59,114.5C 59.3603,116.421 60.1936,118.088 61.5,119.5C 61.0233,120.478 60.3567,121.311 59.5,122C 61.3937,123.079 61.727,124.413 60.5,126C 62.1066,127.049 62.7733,128.549 62.5,130.5C 64.3588,130.461 65.6921,131.294 66.5,133C 66.3528,134.974 66.0195,136.974 65.5,139C 66.5,139.333 67.5,139.667 68.5,140C 68.1667,140.333 67.8333,140.667 67.5,141C 68.376,142.586 69.376,144.086 70.5,145.5C 69.1912,147.937 69.8578,149.437 72.5,150C 71.4829,151.049 71.3162,152.216 72,153.5C 72.3333,153.167 72.6667,152.833 73,152.5C 75.1343,154.578 74.9677,156.412 72.5,158C 73.8333,158.667 75.1667,159.333 76.5,160C 75.7286,161.998 76.3952,163.665 78.5,165C 77.3659,166.016 77.6992,166.683 79.5,167C 78.0745,168.714 78.4078,170.047 80.5,171C 80.0137,173.027 80.0137,175.193 80.5,177.5C 82.9418,177.119 83.6085,177.786 82.5,179.5C 82.9767,180.478 83.6433,181.311 84.5,182C 82.3143,182.604 82.1476,183.77 84,185.5C 84.3173,183.699 84.984,183.366 86,184.5C 86.6172,185.449 86.4506,186.282 85.5,187C 87.3008,187.317 87.6341,187.984 86.5,189C 87.7441,189.456 88.5774,188.956 89,187.5C 89.624,189.464 89.124,191.131 87.5,192.5C 88.3554,193.293 89.1887,192.96 90,191.5C 90.3736,193.491 91.207,195.158 92.5,196.5C 95.0253,204.547 98.3586,212.214 102.5,219.5C 96.6533,223.591 90.9867,227.924 85.5,232.5C 83.5383,225.992 81.0383,219.325 78,212.5C 76.5905,211.213 75.0905,210.046 73.5,209C 73.8333,208.667 74.1667,208.333 74.5,208C 68.0461,192.08 62.2128,175.914 57,159.5C 56.5348,158.069 55.7014,156.903 54.5,156C 54.8333,155.667 55.1667,155.333 55.5,155C 51.7745,147.158 48.4412,138.825 45.5,130C 46.0219,129.439 46.3552,128.772 46.5,128C 44.3846,125.362 43.0513,122.695 42.5,120C 43.3452,118.442 42.6785,117.442 40.5,117C 41.4022,113.847 40.0689,111.847 36.5,111C 37.3081,110.692 37.9747,110.192 38.5,109.5C 37.3595,108.575 37.3595,107.741 38.5,107C 36.3676,106.082 35.701,104.749 36.5,103C 35.8019,100.546 34.8019,98.2129 33.5,96C 33.8333,95.6667 34.1667,95.3333 34.5,95C 32.4815,93.1427 30.8149,90.976 29.5,88.5C 30.1667,88.1667 30.8333,87.8333 31.5,87.5C 29.6652,86.5723 29.3318,85.4056 30.5,84C 27.9648,83.0718 26.9648,81.2385 27.5,78.5C 28.552,78.6495 29.552,78.4828 30.5,78C 29.4297,76.2706 27.763,74.4372 25.5,72.5C 25.9555,69.5151 25.9555,66.6818 25.5,64C 22.7998,62.8099 20.6331,60.9766 19,58.5C 18.3893,53.9989 16.8893,49.4989 14.5,45C 15.3279,44.0853 16.3279,43.4186 17.5,43C 12.8235,43.4957 8.15683,44.3291 3.5,45.5C 10.8431,42.4096 18.5097,40.0763 26.5,38.5 Z"/></g>
<g><path style="opacity:1" fill="#2fe2bf" d="M 85.5,232.5 C 79.9796,236.756 74.3129,240.756 68.5,244.5C 67.448,244.649 66.448,244.483 65.5,244C 65.8333,243.667 66.1667,243.333 66.5,243C 64.7313,240.731 64.0647,238.398 64.5,236C 62.6992,235.683 62.3659,235.016 63.5,234C 60.5887,226.834 57.9221,219.168 55.5,211C 53.8555,209.968 53.5221,208.801 54.5,207.5C 53.6872,206.186 52.6872,205.019 51.5,204C 51.6158,202.732 51.9491,201.398 52.5,200C 50.0611,195.166 48.0611,190.499 46.5,186C 47.1667,185.667 47.8333,185.333 48.5,185C 46.0958,184.492 45.4291,183.325 46.5,181.5C 44.705,178.076 43.0383,174.576 41.5,171C 42.6341,169.984 42.3008,169.317 40.5,169C 40.3775,167.211 40.3775,165.378 40.5,163.5C 38.6248,160.76 37.9582,157.927 38.5,155C 37.5,154.667 36.5,154.333 35.5,154C 35.7451,151.911 35.7451,149.911 35.5,148C 34.3601,146.027 33.0267,144.193 31.5,142.5C 32.6682,141.094 32.3348,139.928 30.5,139C 30.9574,138.586 31.2907,138.086 31.5,137.5C 29.5614,135.878 29.228,134.044 30.5,132C 28.4078,131.047 28.0745,129.714 29.5,128C 27.3249,125.518 25.6582,122.685 24.5,119.5C 24.7093,118.914 25.0426,118.414 25.5,118C 22.8062,112.49 20.4728,106.824 18.5,101C 18.9574,100.586 19.2907,100.086 19.5,99.5C 16.9063,93.4153 14.5729,87.2486 12.5,81C 12.2549,79.0886 12.2549,77.0886 12.5,75C 10.1144,74.7165 9.44774,73.7165 10.5,72C 8.81863,70.0545 8.15197,68.0545 8.5,66C 5.75055,64.6538 5.41722,63.3204 7.5,62C 5.29932,60.3155 4.63265,58.3155 5.5,56C 4.07533,53.4469 2.57533,50.9469 1,48.5C 0.333333,58.8333 0.333333,69.1667 1,79.5C 1.80133,83.8318 2.96799,87.9985 4.5,92C 3.25768,97.9302 2.42434,97.7636 2,91.5C 1.50137,95.1516 1.3347,98.8183 1.5,102.5C 0.833333,99.1667 0.166667,95.8333 -0.5,92.5C -0.5,77.5 -0.5,62.5 -0.5,47.5C 0.60486,46.3995 1.93819,45.7329 3.5,45.5C 8.15683,44.3291 12.8235,43.4957 17.5,43C 16.3279,43.4186 15.3279,44.0853 14.5,45C 16.8893,49.4989 18.3893,53.9989 19,58.5C 20.6331,60.9766 22.7998,62.8099 25.5,64C 25.9555,66.6818 25.9555,69.5151 25.5,72.5C 27.763,74.4372 29.4297,76.2706 30.5,78C 29.552,78.4828 28.552,78.6495 27.5,78.5C 26.9648,81.2385 27.9648,83.0718 30.5,84C 29.3318,85.4056 29.6652,86.5723 31.5,87.5C 30.8333,87.8333 30.1667,88.1667 29.5,88.5C 30.8149,90.976 32.4815,93.1427 34.5,95C 34.1667,95.3333 33.8333,95.6667 33.5,96C 34.8019,98.2129 35.8019,100.546 36.5,103C 35.701,104.749 36.3676,106.082 38.5,107C 37.3595,107.741 37.3595,108.575 38.5,109.5C 37.9747,110.192 37.3081,110.692 36.5,111C 40.0689,111.847 41.4022,113.847 40.5,117C 42.6785,117.442 43.3452,118.442 42.5,120C 43.0513,122.695 44.3846,125.362 46.5,128C 46.3552,128.772 46.0219,129.439 45.5,130C 48.4412,138.825 51.7745,147.158 55.5,155C 55.1667,155.333 54.8333,155.667 54.5,156C 55.7014,156.903 56.5348,158.069 57,159.5C 62.2128,175.914 68.0461,192.08 74.5,208C 74.1667,208.333 73.8333,208.667 73.5,209C 75.0905,210.046 76.5905,211.213 78,212.5C 81.0383,219.325 83.5383,225.992 85.5,232.5 Z"/></g>
<g><path style="opacity:1" fill="#1cd6c6" d="M 91.5,161.5 C 90.6076,168.791 90.2743,176.124 90.5,183.5C 91.2745,187.814 91.9412,192.147 92.5,196.5C 91.207,195.158 90.3736,193.491 90,191.5C 89.1887,192.96 88.3554,193.293 87.5,192.5C 89.124,191.131 89.624,189.464 89,187.5C 88.5774,188.956 87.7441,189.456 86.5,189C 87.6341,187.984 87.3008,187.317 85.5,187C 86.4506,186.282 86.6172,185.449 86,184.5C 84.984,183.366 84.3173,183.699 84,185.5C 82.1476,183.77 82.3143,182.604 84.5,182C 83.6433,181.311 82.9767,180.478 82.5,179.5C 83.6085,177.786 82.9418,177.119 80.5,177.5C 80.0137,175.193 80.0137,173.027 80.5,171C 78.4078,170.047 78.0745,168.714 79.5,167C 77.6992,166.683 77.3659,166.016 78.5,165C 76.3952,163.665 75.7286,161.998 76.5,160C 75.1667,159.333 73.8333,158.667 72.5,158C 74.9677,156.412 75.1343,154.578 73,152.5C 72.6667,152.833 72.3333,153.167 72,153.5C 71.3162,152.216 71.4829,151.049 72.5,150C 69.8578,149.437 69.1912,147.937 70.5,145.5C 69.376,144.086 68.376,142.586 67.5,141C 67.8333,140.667 68.1667,140.333 68.5,140C 67.5,139.667 66.5,139.333 65.5,139C 66.0195,136.974 66.3528,134.974 66.5,133C 65.6921,131.294 64.3588,130.461 62.5,130.5C 62.7733,128.549 62.1066,127.049 60.5,126C 61.727,124.413 61.3937,123.079 59.5,122C 60.3567,121.311 61.0233,120.478 61.5,119.5C 60.1936,118.088 59.3603,116.421 59,114.5C 58.0805,114.07 57.2472,113.736 56.5,113.5C 57.0253,112.808 57.6919,112.308 58.5,112C 57.5294,110.796 56.5294,110.296 55.5,110.5C 55.1658,109.002 55.1658,107.335 55.5,105.5C 54.5089,104.335 53.5089,103.168 52.5,102C 51.1205,97.516 49.7872,93.3493 48.5,89.5C 49.4286,87.6783 48.7619,86.3449 46.5,85.5C 46.7093,84.914 47.0426,84.414 47.5,84C 45.7208,80.9438 44.0542,77.7771 42.5,74.5C 42.7093,73.914 43.0426,73.414 43.5,73C 38.1188,62.4863 34.1188,50.9863 31.5,38.5C 29.8333,38.5 28.1667,38.5 26.5,38.5C 29.5046,36.7234 32.8379,35.7234 36.5,35.5C 40.0532,35.1561 43.5532,34.4894 47,33.5C 49.0092,34.4821 49.5092,35.8154 48.5,37.5C 53.6706,49.8003 57.8373,62.1336 61,74.5C 61.3333,74.1667 61.6667,73.8333 62,73.5C 63.2937,74.8544 63.4604,76.1877 62.5,77.5C 67.2829,89.8605 71.4495,101.86 75,113.5C 76.4095,114.787 77.9095,115.954 79.5,117C 79.5,118.333 79.5,119.667 79.5,121C 80.1667,121.333 80.8333,121.667 81.5,122C 79.9632,123.11 79.2965,124.61 79.5,126.5C 80.5,126.5 81.5,126.5 82.5,126.5C 82.3505,127.552 82.5172,128.552 83,129.5C 84.4737,132.325 85.9737,132.658 87.5,130.5C 89.6603,132.093 89.827,133.76 88,135.5C 86.5341,133.675 84.7008,133.175 82.5,134C 83.9308,134.465 85.0975,135.299 86,136.5C 87.9757,143.169 88.6424,143.169 88,136.5C 89.6477,137.717 91.481,138.55 93.5,139C 88.3438,140.699 87.8438,142.865 92,145.5C 92.3333,145.167 92.6667,144.833 93,144.5C 95.3587,147.124 95.0254,147.791 92,146.5C 92.1276,149.486 92.1276,152.486 92,155.5C 91.2825,154.549 90.4491,154.383 89.5,155C 91.229,156.789 91.8957,158.956 91.5,161.5 Z"/></g>
<g><path style="opacity:1" fill="#e9e8d0" d="M 168.5,103.5 C 173.186,104.037 177.853,104.704 182.5,105.5C 197.831,109.668 210.831,117.668 221.5,129.5C 224.759,133.696 227.759,138.03 230.5,142.5C 231.773,144.713 232.773,147.046 233.5,149.5C 215.869,156.771 198.036,163.771 180,170.5C 179.617,169.944 179.117,169.611 178.5,169.5C 179.521,163.87 179.687,158.204 179,152.5C 178.295,149.524 177.129,146.858 175.5,144.5C 167.391,131.112 155.391,125.112 139.5,126.5C 136.755,122.637 134.755,118.304 133.5,113.5C 132.264,112.754 130.93,112.421 129.5,112.5C 141.487,105.626 154.487,102.626 168.5,103.5 Z"/></g>
<g><path style="opacity:1" fill="#9850de" d="M 325.5,73.5 C 325.135,90.437 323.468,107.104 320.5,123.5C 320.766,119.429 320.433,115.429 319.5,111.5C 320.213,109.224 320.713,106.891 321,104.5C 321.333,104.833 321.667,105.167 322,105.5C 322.827,101.459 322.66,97.4589 321.5,93.5C 319.678,92.5714 318.345,93.2381 317.5,95.5C 316.011,95.4669 314.678,94.9669 313.5,94C 314.754,92.3128 316.42,90.3128 318.5,88C 315.916,87.9182 313.583,88.7515 311.5,90.5C 310.197,89.2822 309.197,89.6155 308.5,91.5C 307.914,91.2907 307.414,90.9574 307,90.5C 305.667,91.8333 304.333,93.1667 303,94.5C 298.325,95.1136 294.325,97.4469 291,101.5C 289.16,100.167 288.66,100.334 289.5,102C 284.056,102.311 279.556,104.477 276,108.5C 274.913,106.068 274.413,106.402 274.5,109.5C 270.858,109.21 268.025,110.543 266,113.5C 265.667,112.833 265.333,112.167 265,111.5C 262.667,112.5 261,114.167 260,116.5C 259.667,116.167 259.333,115.833 259,115.5C 253.733,119.027 248.233,122.194 242.5,125C 240.451,127.596 238.785,130.429 237.5,133.5C 235.492,131.238 235.159,131.738 236.5,135C 234.114,135.284 233.448,136.284 234.5,138C 231.928,138.432 230.594,139.932 230.5,142.5C 227.759,138.03 224.759,133.696 221.5,129.5C 223.139,128.527 224.473,127.194 225.5,125.5C 258.771,100.741 291.938,75.7408 325,50.5C 325.5,58.1594 325.666,65.8261 325.5,73.5 Z"/></g>
<g><path style="opacity:1" fill="#8f3ddc" d="M 320.5,123.5 C 320.136,130.064 319.136,136.397 317.5,142.5C 317.675,136.617 318.341,130.783 319.5,125C 319.721,120.134 318.388,119.134 315.5,122C 312.499,121.906 310.499,123.239 309.5,126C 308.551,126.617 307.718,126.451 307,125.5C 305,127.5 303,129.5 301,131.5C 300.282,130.549 299.449,130.383 298.5,131C 297.789,132.255 296.956,133.421 296,134.5C 294.251,133.701 292.918,134.368 292,136.5C 291.176,135.192 290.676,133.692 290.5,132C 292.934,129.277 295.601,126.777 298.5,124.5C 297.672,123.585 296.672,122.919 295.5,122.5C 291.164,125.682 286.497,128.182 281.5,130C 279.981,131.351 278.648,132.851 277.5,134.5C 276.284,133.998 275.117,133.665 274,133.5C 269.359,137.12 264.526,140.454 259.5,143.5C 257.144,146.022 254.977,148.688 253,151.5C 252.667,151.167 252.333,150.833 252,150.5C 251.489,152.878 250.822,155.212 250,157.5C 249.333,156.167 248.667,156.167 248,157.5C 246.166,160.438 244.666,163.438 243.5,166.5C 242.167,166.5 240.833,166.5 239.5,166.5C 239.821,171.695 239.487,176.695 238.5,181.5C 239.626,170.332 237.96,159.666 233.5,149.5C 232.773,147.046 231.773,144.713 230.5,142.5C 230.594,139.932 231.928,138.432 234.5,138C 233.448,136.284 234.114,135.284 236.5,135C 235.159,131.738 235.492,131.238 237.5,133.5C 238.785,130.429 240.451,127.596 242.5,125C 248.233,122.194 253.733,119.027 259,115.5C 259.333,115.833 259.667,116.167 260,116.5C 261,114.167 262.667,112.5 265,111.5C 265.333,112.167 265.667,112.833 266,113.5C 268.025,110.543 270.858,109.21 274.5,109.5C 274.413,106.402 274.913,106.068 276,108.5C 279.556,104.477 284.056,102.311 289.5,102C 288.66,100.334 289.16,100.167 291,101.5C 294.325,97.4469 298.325,95.1136 303,94.5C 304.333,93.1667 305.667,91.8333 307,90.5C 307.414,90.9574 307.914,91.2907 308.5,91.5C 309.197,89.6155 310.197,89.2822 311.5,90.5C 313.583,88.7515 315.916,87.9182 318.5,88C 316.42,90.3128 314.754,92.3128 313.5,94C 314.678,94.9669 316.011,95.4669 317.5,95.5C 318.345,93.2381 319.678,92.5714 321.5,93.5C 322.66,97.4589 322.827,101.459 322,105.5C 321.667,105.167 321.333,104.833 321,104.5C 320.713,106.891 320.213,109.224 319.5,111.5C 320.433,115.429 320.766,119.429 320.5,123.5 Z"/></g>
<g><path style="opacity:1" fill="#fe6c03" d="M 139.5,126.5 C 155.391,125.112 167.391,131.112 175.5,144.5C 170.592,152.41 164.592,159.41 157.5,165.5C 156.194,166.912 155.36,168.579 155,170.5C 147.737,176.712 141.904,183.545 137.5,191C 136.552,191.483 135.552,191.649 134.5,191.5C 128.153,189.325 122.819,185.658 118.5,180.5C 108.509,162.796 110.843,146.962 125.5,133C 129.892,129.967 134.559,127.8 139.5,126.5 Z"/></g>
<g><path style="opacity:1" fill="#ecccbf" d="M 133.5,141.5 C 140.669,140.513 144.169,143.513 144,150.5C 139.383,157.152 134.717,157.152 130,150.5C 129.481,146.868 130.647,143.868 133.5,141.5 Z"/></g>
<g><path style="opacity:1" fill="#37e8ba" d="M 68.5,244.5 C 61.6833,251.317 54.0166,256.983 45.5,261.5C 27.3821,227.229 14.8821,190.895 8,152.5C 4.85012,135.952 2.68345,119.285 1.5,102.5C 1.3347,98.8183 1.50137,95.1516 2,91.5C 2.42434,97.7636 3.25768,97.9302 4.5,92C 2.96799,87.9985 1.80133,83.8318 1,79.5C 0.333333,69.1667 0.333333,58.8333 1,48.5C 2.57533,50.9469 4.07533,53.4469 5.5,56C 4.63265,58.3155 5.29932,60.3155 7.5,62C 5.41722,63.3204 5.75055,64.6538 8.5,66C 8.15197,68.0545 8.81863,70.0545 10.5,72C 9.44774,73.7165 10.1144,74.7165 12.5,75C 12.2549,77.0886 12.2549,79.0886 12.5,81C 14.5729,87.2486 16.9063,93.4153 19.5,99.5C 19.2907,100.086 18.9574,100.586 18.5,101C 20.4728,106.824 22.8062,112.49 25.5,118C 25.0426,118.414 24.7093,118.914 24.5,119.5C 25.6582,122.685 27.3249,125.518 29.5,128C 28.0745,129.714 28.4078,131.047 30.5,132C 29.228,134.044 29.5614,135.878 31.5,137.5C 31.2907,138.086 30.9574,138.586 30.5,139C 32.3348,139.928 32.6682,141.094 31.5,142.5C 33.0267,144.193 34.3601,146.027 35.5,148C 35.7451,149.911 35.7451,151.911 35.5,154C 36.5,154.333 37.5,154.667 38.5,155C 37.9582,157.927 38.6248,160.76 40.5,163.5C 40.3775,165.378 40.3775,167.211 40.5,169C 42.3008,169.317 42.6341,169.984 41.5,171C 43.0383,174.576 44.705,178.076 46.5,181.5C 45.4291,183.325 46.0958,184.492 48.5,185C 47.8333,185.333 47.1667,185.667 46.5,186C 48.0611,190.499 50.0611,195.166 52.5,200C 51.9491,201.398 51.6158,202.732 51.5,204C 52.6872,205.019 53.6872,206.186 54.5,207.5C 53.5221,208.801 53.8555,209.968 55.5,211C 57.9221,219.168 60.5887,226.834 63.5,234C 62.3659,235.016 62.6992,235.683 64.5,236C 64.0647,238.398 64.7313,240.731 66.5,243C 66.1667,243.333 65.8333,243.667 65.5,244C 66.448,244.483 67.448,244.649 68.5,244.5 Z"/></g>
<g><path style="opacity:1" fill="#fe8805" d="M 175.5,144.5 C 177.129,146.858 178.295,149.524 179,152.5C 179.687,158.204 179.521,163.87 178.5,169.5C 175.598,173.183 175.931,176.517 179.5,179.5C 174.321,185.179 169.321,191.012 164.5,197C 164.833,197.333 165.167,197.667 165.5,198C 163.866,198.494 162.199,198.66 160.5,198.5C 159.391,198.443 158.391,198.11 157.5,197.5C 156.426,196.115 155.093,194.949 153.5,194C 148.167,193.667 142.833,193.333 137.5,193C 136.263,192.768 135.263,192.268 134.5,191.5C 135.552,191.649 136.552,191.483 137.5,191C 141.904,183.545 147.737,176.712 155,170.5C 155.36,168.579 156.194,166.912 157.5,165.5C 164.592,159.41 170.592,152.41 175.5,144.5 Z"/></g>
<g><path style="opacity:1" fill="#8428d9" d="M 317.5,142.5 C 317.344,148.116 316.344,153.449 314.5,158.5C 315.522,152.187 316.022,145.853 316,139.5C 313.775,140.939 311.775,142.606 310,144.5C 308.497,144.165 307.164,144.165 306,144.5C 305.363,146.303 304.197,147.636 302.5,148.5C 300.311,149.173 298.311,150.173 296.5,151.5C 295.914,151.291 295.414,150.957 295,150.5C 291.393,152.438 289.393,155.438 289,159.5C 287.984,160.634 287.317,160.301 287,158.5C 285.148,160.23 285.314,161.396 287.5,162C 285.113,162.976 283.946,164.809 284,167.5C 281.878,168.22 281.378,169.387 282.5,171C 281.5,171.333 280.5,171.667 279.5,172C 279.833,172.333 280.167,172.667 280.5,173C 279.315,174.353 277.981,175.52 276.5,176.5C 272.701,178.982 268.701,180.982 264.5,182.5C 264.649,183.552 264.483,184.552 264,185.5C 263.282,184.549 262.449,184.383 261.5,185C 259.173,186.996 257.673,189.496 257,192.5C 255.919,190.233 254.419,190.066 252.5,192C 251.521,194.403 250.021,195.236 248,194.5C 247.641,197.544 246.974,197.878 246,195.5C 245.517,196.448 245.351,197.448 245.5,198.5C 244.448,198.351 243.448,198.517 242.5,199C 241.167,199.667 241.167,200.333 242.5,201C 240.843,201.231 239.509,202.065 238.5,203.5C 237.504,203.586 236.671,203.252 236,202.5C 235.623,203.942 234.79,204.942 233.5,205.5C 235.45,200.317 236.784,194.983 237.5,189.5C 238.092,186.873 238.425,184.206 238.5,181.5C 239.487,176.695 239.821,171.695 239.5,166.5C 240.833,166.5 242.167,166.5 243.5,166.5C 244.666,163.438 246.166,160.438 248,157.5C 248.667,156.167 249.333,156.167 250,157.5C 250.822,155.212 251.489,152.878 252,150.5C 252.333,150.833 252.667,151.167 253,151.5C 254.977,148.688 257.144,146.022 259.5,143.5C 264.526,140.454 269.359,137.12 274,133.5C 275.117,133.665 276.284,133.998 277.5,134.5C 278.648,132.851 279.981,131.351 281.5,130C 286.497,128.182 291.164,125.682 295.5,122.5C 296.672,122.919 297.672,123.585 298.5,124.5C 295.601,126.777 292.934,129.277 290.5,132C 290.676,133.692 291.176,135.192 292,136.5C 292.918,134.368 294.251,133.701 296,134.5C 296.956,133.421 297.789,132.255 298.5,131C 299.449,130.383 300.282,130.549 301,131.5C 303,129.5 305,127.5 307,125.5C 307.718,126.451 308.551,126.617 309.5,126C 310.499,123.239 312.499,121.906 315.5,122C 318.388,119.134 319.721,120.134 319.5,125C 318.341,130.783 317.675,136.617 317.5,142.5 Z"/></g>
<g><path style="opacity:1" fill="#d7f1e5" d="M 233.5,149.5 C 237.96,159.666 239.626,170.332 238.5,181.5C 238.425,184.206 238.092,186.873 237.5,189.5C 236.566,188.432 236.232,187.099 236.5,185.5C 219.419,182.419 201.752,180.253 183.5,179C 185.5,179.667 187.5,180.333 189.5,181C 186.657,180.743 183.99,180.91 181.5,181.5C 180.833,180.833 180.167,180.167 179.5,179.5C 175.931,176.517 175.598,173.183 178.5,169.5C 179.117,169.611 179.617,169.944 180,170.5C 198.036,163.771 215.869,156.771 233.5,149.5 Z"/></g>
<g><path style="opacity:1" fill="#f1d3d4" d="M 128.5,112.5 C 128.833,112.5 129.167,112.5 129.5,112.5C 130.93,112.421 132.264,112.754 133.5,113.5C 134.755,118.304 136.755,122.637 139.5,126.5C 134.559,127.8 129.892,129.967 125.5,133C 110.843,146.962 108.509,162.796 118.5,180.5C 110.068,181.262 101.735,182.595 93.5,184.5C 92.5832,183.873 91.5832,183.539 90.5,183.5C 90.2743,176.124 90.6076,168.791 91.5,161.5C 93.6924,153.944 96.6924,146.61 100.5,139.5C 107.879,128.455 117.212,119.455 128.5,112.5 Z"/></g>
<g><path style="opacity:1" fill="#c2ebec" d="M 237.5,189.5 C 236.784,194.983 235.45,200.317 233.5,205.5C 229.731,214.057 224.731,221.724 218.5,228.5C 216.721,227.33 215.721,225.664 215.5,223.5C 213.408,223.439 211.908,222.439 211,220.5C 210.667,217.167 210.333,213.833 210,210.5C 209.501,214.821 209.334,219.154 209.5,223.5C 201.316,223.826 193.316,223.492 185.5,222.5C 193.167,222.5 200.833,222.5 208.5,222.5C 208.666,217.821 208.499,213.155 208,208.5C 199.661,198.995 190.828,189.995 181.5,181.5C 183.99,180.91 186.657,180.743 189.5,181C 187.5,180.333 185.5,179.667 183.5,179C 201.752,180.253 219.419,182.419 236.5,185.5C 236.232,187.099 236.566,188.432 237.5,189.5 Z"/></g>
<g><path style="opacity:1" fill="#efe1f9" d="M 118.5,180.5 C 122.819,185.658 128.153,189.325 134.5,191.5C 135.263,192.268 136.263,192.768 137.5,193C 142.833,193.333 148.167,193.667 153.5,194C 155.093,194.949 156.426,196.115 157.5,197.5C 156.022,197.238 154.689,197.571 153.5,198.5C 150.358,204.452 146.691,209.952 142.5,215C 143.167,215.333 143.833,215.667 144.5,216C 142.791,217.916 141.457,220.082 140.5,222.5C 139.198,224.201 137.531,225.368 135.5,226C 136.705,228.234 136.039,229.901 133.5,231C 135.797,232.16 135.464,233.16 132.5,234C 133.833,234.667 133.833,235.333 132.5,236C 131.062,236.219 129.729,236.719 128.5,237.5C 130.086,239.173 130.753,241.173 130.5,243.5C 126.673,241.754 123.007,239.754 119.5,237.5C 114.833,233.5 110.5,229.167 106.5,224.5C 105.396,222.611 104.063,220.945 102.5,219.5C 98.3586,212.214 95.0253,204.547 92.5,196.5C 91.9412,192.147 91.2745,187.814 90.5,183.5C 91.5832,183.539 92.5832,183.873 93.5,184.5C 101.735,182.595 110.068,181.262 118.5,180.5 Z"/></g>
<g><path style="opacity:1" fill="#fea90b" d="M 179.5,179.5 C 180.167,180.167 180.833,180.833 181.5,181.5C 190.828,189.995 199.661,198.995 208,208.5C 208.499,213.155 208.666,217.821 208.5,222.5C 200.833,222.5 193.167,222.5 185.5,222.5C 184.542,222.047 183.708,221.381 183,220.5C 182.667,217.833 182.333,215.167 182,212.5C 179.017,211.083 175.85,210.25 172.5,210C 171.718,207.26 171.218,204.426 171,201.5C 168.519,199.686 165.685,199.02 162.5,199.5C 161.508,199.672 160.842,199.338 160.5,198.5C 162.199,198.66 163.866,198.494 165.5,198C 165.167,197.667 164.833,197.333 164.5,197C 169.321,191.012 174.321,185.179 179.5,179.5 Z"/></g>
<g><path style="opacity:1" fill="#cfddf3" d="M 157.5,197.5 C 158.391,198.11 159.391,198.443 160.5,198.5C 160.842,199.338 161.508,199.672 162.5,199.5C 163.919,200.451 165.585,200.784 167.5,200.5C 167.652,204.262 168.319,207.928 169.5,211.5C 169.291,212.086 168.957,212.586 168.5,213C 169.667,213.5 170.5,214.333 171,215.5C 173,226.167 175,236.833 177,247.5C 178.401,249.192 180.234,249.859 182.5,249.5C 180.833,250.167 179.167,250.833 177.5,251.5C 171.833,251.5 166.167,251.5 160.5,251.5C 149.648,251.622 139.648,248.955 130.5,243.5C 130.753,241.173 130.086,239.173 128.5,237.5C 129.729,236.719 131.062,236.219 132.5,236C 133.833,235.333 133.833,234.667 132.5,234C 135.464,233.16 135.797,232.16 133.5,231C 136.039,229.901 136.705,228.234 135.5,226C 137.531,225.368 139.198,224.201 140.5,222.5C 141.457,220.082 142.791,217.916 144.5,216C 143.833,215.667 143.167,215.333 142.5,215C 146.691,209.952 150.358,204.452 153.5,198.5C 154.689,197.571 156.022,197.238 157.5,197.5 Z"/></g>
<g><path style="opacity:1" fill="#7d17d6" d="M 314.5,158.5 C 306.481,206.414 288.981,250.414 262,290.5C 255.672,298.659 248.839,306.325 241.5,313.5C 240.58,310.492 239.246,307.659 237.5,305C 240.044,303.225 240.044,301.392 237.5,299.5C 240.227,296.302 239.893,293.468 236.5,291C 237.167,290.667 237.833,290.333 238.5,290C 237.643,289.311 236.977,288.478 236.5,287.5C 238.1,283.412 237.766,279.578 235.5,276C 236.167,275.667 236.833,275.333 237.5,275C 236.167,274.333 236.167,273.667 237.5,273C 236.833,272.667 236.167,272.333 235.5,272C 235.234,268.147 235.567,264.48 236.5,261C 235.872,258.182 234.872,255.515 233.5,253C 234.424,251.85 234.424,250.85 233.5,250C 234.428,249.612 235.095,248.945 235.5,248C 233.566,246.046 233.233,243.88 234.5,241.5C 233.975,240.808 233.308,240.308 232.5,240C 234.957,238.488 234.957,237.154 232.5,236C 233.051,234.602 233.384,233.268 233.5,232C 230.972,230.684 230.972,229.517 233.5,228.5C 231.96,227.468 231.46,226.135 232,224.5C 232.333,224.833 232.667,225.167 233,225.5C 233.374,224.584 233.874,223.75 234.5,223C 233.692,222.692 233.025,222.192 232.5,221.5C 233.305,219.528 234.639,218.028 236.5,217C 236.043,216.586 235.709,216.086 235.5,215.5C 238.014,213.132 238.014,210.799 235.5,208.5C 239.116,208.839 240.116,207.172 238.5,203.5C 239.509,202.065 240.843,201.231 242.5,201C 241.167,200.333 241.167,199.667 242.5,199C 243.448,198.517 244.448,198.351 245.5,198.5C 245.351,197.448 245.517,196.448 246,195.5C 246.974,197.878 247.641,197.544 248,194.5C 250.021,195.236 251.521,194.403 252.5,192C 254.419,190.066 255.919,190.233 257,192.5C 257.673,189.496 259.173,186.996 261.5,185C 262.449,184.383 263.282,184.549 264,185.5C 264.483,184.552 264.649,183.552 264.5,182.5C 268.701,180.982 272.701,178.982 276.5,176.5C 277.981,175.52 279.315,174.353 280.5,173C 280.167,172.667 279.833,172.333 279.5,172C 280.5,171.667 281.5,171.333 282.5,171C 281.378,169.387 281.878,168.22 284,167.5C 283.946,164.809 285.113,162.976 287.5,162C 285.314,161.396 285.148,160.23 287,158.5C 287.317,160.301 287.984,160.634 289,159.5C 289.393,155.438 291.393,152.438 295,150.5C 295.414,150.957 295.914,151.291 296.5,151.5C 298.311,150.173 300.311,149.173 302.5,148.5C 304.197,147.636 305.363,146.303 306,144.5C 307.164,144.165 308.497,144.165 310,144.5C 311.775,142.606 313.775,140.939 316,139.5C 316.022,145.853 315.522,152.187 314.5,158.5 Z"/></g>
<g><path style="opacity:1" fill="#bfdceb" d="M 162.5,199.5 C 165.685,199.02 168.519,199.686 171,201.5C 171.218,204.426 171.718,207.26 172.5,210C 175.85,210.25 179.017,211.083 182,212.5C 182.333,215.167 182.667,217.833 183,220.5C 183.708,221.381 184.542,222.047 185.5,222.5C 193.316,223.492 201.316,223.826 209.5,223.5C 209.334,219.154 209.501,214.821 210,210.5C 210.333,213.833 210.667,217.167 211,220.5C 211.908,222.439 213.408,223.439 215.5,223.5C 215.721,225.664 216.721,227.33 218.5,228.5C 208.71,239.069 196.71,246.069 182.5,249.5C 180.234,249.859 178.401,249.192 177,247.5C 175,236.833 173,226.167 171,215.5C 170.5,214.333 169.667,213.5 168.5,213C 168.957,212.586 169.291,212.086 169.5,211.5C 168.319,207.928 167.652,204.262 167.5,200.5C 165.585,200.784 163.919,200.451 162.5,199.5 Z"/></g>
<g><path style="opacity:1" fill="#d853e9" d="M 102.5,219.5 C 104.063,220.945 105.396,222.611 106.5,224.5C 104.871,225.625 103.371,226.959 102,228.5C 101.692,227.692 101.192,227.025 100.5,226.5C 99.7952,228.672 98.7952,230.672 97.5,232.5C 97.9767,233.478 98.6433,234.311 99.5,235C 97.3137,236.512 95.647,238.512 94.5,241C 96.8073,242.828 96.474,244.494 93.5,246C 94.1667,246.333 94.8333,246.667 95.5,247C 94.6433,247.689 93.9767,248.522 93.5,249.5C 93.1064,251.424 93.773,253.257 95.5,255C 93.1144,255.284 92.4477,256.284 93.5,258C 92.8453,260.591 91.8453,263.258 90.5,266C 91.4562,268.759 90.4562,270.759 87.5,272C 88.7468,273.458 88.7468,274.958 87.5,276.5C 88.6872,277.519 89.6872,278.686 90.5,280C 89.8126,282.232 89.4793,284.398 89.5,286.5C 90.0736,288.059 90.7402,289.559 91.5,291C 91.1667,291.333 90.8333,291.667 90.5,292C 91.428,292.388 92.0946,293.055 92.5,294C 92.489,296.65 92.489,299.317 92.5,302C 94.8912,302.691 94.8912,303.691 92.5,305C 95.1667,306 95.1667,307 92.5,308C 93.448,308.483 94.448,308.649 95.5,308.5C 95.3796,310.199 95.0463,311.865 94.5,313.5C 95.5968,316.29 96.5968,319.123 97.5,322C 97.1667,322.5 96.8333,323 96.5,323.5C 93.4172,320.406 90.0839,317.739 86.5,315.5C 69.7938,299.796 56.1271,281.796 45.5,261.5C 54.0166,256.983 61.6833,251.317 68.5,244.5C 74.3129,240.756 79.9796,236.756 85.5,232.5C 90.9867,227.924 96.6533,223.591 102.5,219.5 Z"/></g>
<g><path style="opacity:0.999" fill="#ba2ce3" d="M 119.5,237.5 C 123.007,239.754 126.673,241.754 130.5,243.5C 139.648,248.955 149.648,251.622 160.5,251.5C 162.483,286.945 163.15,322.612 162.5,358.5C 163.873,358.343 165.207,358.51 166.5,359C 165.263,359.232 164.263,359.732 163.5,360.5C 160.833,360.5 158.167,360.5 155.5,360.5C 139.648,354.576 124.981,346.576 111.5,336.5C 116.379,338.056 121.046,340.056 125.5,342.5C 125.38,337.941 124.047,333.441 121.5,329C 123.434,326.729 123.434,324.729 121.5,323C 122.44,321.095 122.773,318.928 122.5,316.5C 122.023,315.522 121.357,314.689 120.5,314C 123.167,313 123.167,312 120.5,311C 121.013,307.749 121.346,304.416 121.5,301C 118.09,297.884 117.09,294.218 118.5,290C 116.208,288.803 115.875,287.137 117.5,285C 114.709,281.878 114.042,278.378 115.5,274.5C 114.965,272.729 114.131,272.396 113,273.5C 114.131,271.023 113.631,268.857 111.5,267C 112.167,266 112.833,265 113.5,264C 112.275,261.34 112.608,258.673 114.5,256C 113.833,255.667 113.167,255.333 112.5,255C 113.33,253.253 114.33,251.587 115.5,250C 115.493,246.832 115.159,243.999 114.5,241.5C 115.942,239.176 117.608,237.842 119.5,237.5 Z"/></g>
<g><path style="opacity:1" fill="#981fd8" d="M 238.5,203.5 C 240.116,207.172 239.116,208.839 235.5,208.5C 238.014,210.799 238.014,213.132 235.5,215.5C 235.709,216.086 236.043,216.586 236.5,217C 234.639,218.028 233.305,219.528 232.5,221.5C 233.025,222.192 233.692,222.692 234.5,223C 233.874,223.75 233.374,224.584 233,225.5C 232.667,225.167 232.333,224.833 232,224.5C 231.46,226.135 231.96,227.468 233.5,228.5C 230.972,229.517 230.972,230.684 233.5,232C 233.384,233.268 233.051,234.602 232.5,236C 234.957,237.154 234.957,238.488 232.5,240C 233.308,240.308 233.975,240.808 234.5,241.5C 233.233,243.88 233.566,246.046 235.5,248C 235.095,248.945 234.428,249.612 233.5,250C 234.424,250.85 234.424,251.85 233.5,253C 234.872,255.515 235.872,258.182 236.5,261C 235.567,264.48 235.234,268.147 235.5,272C 236.167,272.333 236.833,272.667 237.5,273C 236.167,273.667 236.167,274.333 237.5,275C 236.833,275.333 236.167,275.667 235.5,276C 237.766,279.578 238.1,283.412 236.5,287.5C 236.977,288.478 237.643,289.311 238.5,290C 237.833,290.333 237.167,290.667 236.5,291C 239.893,293.468 240.227,296.302 237.5,299.5C 240.044,301.392 240.044,303.225 237.5,305C 239.246,307.659 240.58,310.492 241.5,313.5C 226.183,329.662 208.516,342.662 188.5,352.5C 187.048,351.698 185.382,351.198 183.5,351C 185.538,348.711 185.538,346.211 183.5,343.5C 182.938,340.568 183.604,337.735 185.5,335C 183.208,333.803 182.875,332.137 184.5,330C 183.067,327.359 182.067,324.526 181.5,321.5C 182.529,321.704 183.529,321.204 184.5,320C 184.001,317.192 183.001,315.358 181.5,314.5C 184.501,312.016 184.667,309.683 182,307.5C 181.667,308.167 181.333,308.833 181,309.5C 180.175,307.299 180.675,305.466 182.5,304C 179.258,303.717 178.924,302.883 181.5,301.5C 180.975,300.808 180.308,300.308 179.5,300C 180.617,296.927 180.784,293.76 180,290.5C 179.25,289.874 178.416,289.374 177.5,289C 179.904,288.492 180.571,287.325 179.5,285.5C 180.025,284.808 180.692,284.308 181.5,284C 179.475,282.806 179.141,281.306 180.5,279.5C 179.885,277.884 178.885,276.551 177.5,275.5C 178.747,273.958 178.747,272.458 177.5,271C 178.357,270.311 179.023,269.478 179.5,268.5C 178.167,267.167 178.167,265.833 179.5,264.5C 177.364,263.148 177.03,261.482 178.5,259.5C 176.493,257.111 176.16,254.444 177.5,251.5C 179.167,250.833 180.833,250.167 182.5,249.5C 196.71,246.069 208.71,239.069 218.5,228.5C 224.731,221.724 229.731,214.057 233.5,205.5C 234.79,204.942 235.623,203.942 236,202.5C 236.671,203.252 237.504,203.586 238.5,203.5 Z"/></g>
<g><path style="opacity:0.999" fill="#a624d9" d="M 160.5,251.5 C 166.167,251.5 171.833,251.5 177.5,251.5C 176.16,254.444 176.493,257.111 178.5,259.5C 177.03,261.482 177.364,263.148 179.5,264.5C 178.167,265.833 178.167,267.167 179.5,268.5C 179.023,269.478 178.357,270.311 177.5,271C 178.747,272.458 178.747,273.958 177.5,275.5C 178.885,276.551 179.885,277.884 180.5,279.5C 179.141,281.306 179.475,282.806 181.5,284C 180.692,284.308 180.025,284.808 179.5,285.5C 180.571,287.325 179.904,288.492 177.5,289C 178.416,289.374 179.25,289.874 180,290.5C 180.784,293.76 180.617,296.927 179.5,300C 180.308,300.308 180.975,300.808 181.5,301.5C 178.924,302.883 179.258,303.717 182.5,304C 180.675,305.466 180.175,307.299 181,309.5C 181.333,308.833 181.667,308.167 182,307.5C 184.667,309.683 184.501,312.016 181.5,314.5C 183.001,315.358 184.001,317.192 184.5,320C 183.529,321.204 182.529,321.704 181.5,321.5C 182.067,324.526 183.067,327.359 184.5,330C 182.875,332.137 183.208,333.803 185.5,335C 183.604,337.735 182.938,340.568 183.5,343.5C 185.538,346.211 185.538,348.711 183.5,351C 185.382,351.198 187.048,351.698 188.5,352.5C 181.984,354.93 175.65,357.597 169.5,360.5C 167.5,360.5 165.5,360.5 163.5,360.5C 164.263,359.732 165.263,359.232 166.5,359C 165.207,358.51 163.873,358.343 162.5,358.5C 163.15,322.612 162.483,286.945 160.5,251.5 Z"/></g>
<g><path style="opacity:1" fill="#cf45e7" d="M 106.5,224.5 C 110.5,229.167 114.833,233.5 119.5,237.5C 117.608,237.842 115.942,239.176 114.5,241.5C 115.159,243.999 115.493,246.832 115.5,250C 114.33,251.587 113.33,253.253 112.5,255C 113.167,255.333 113.833,255.667 114.5,256C 112.608,258.673 112.275,261.34 113.5,264C 112.833,265 112.167,266 111.5,267C 113.631,268.857 114.131,271.023 113,273.5C 114.131,272.396 114.965,272.729 115.5,274.5C 114.042,278.378 114.709,281.878 117.5,285C 115.875,287.137 116.208,288.803 118.5,290C 117.09,294.218 118.09,297.884 121.5,301C 121.346,304.416 121.013,307.749 120.5,311C 123.167,312 123.167,313 120.5,314C 121.357,314.689 122.023,315.522 122.5,316.5C 122.773,318.928 122.44,321.095 121.5,323C 123.434,324.729 123.434,326.729 121.5,329C 124.047,333.441 125.38,337.941 125.5,342.5C 121.046,340.056 116.379,338.056 111.5,336.5C 102.283,330.622 93.9496,323.622 86.5,315.5C 90.0839,317.739 93.4172,320.406 96.5,323.5C 96.8333,323 97.1667,322.5 97.5,322C 96.5968,319.123 95.5968,316.29 94.5,313.5C 95.0463,311.865 95.3796,310.199 95.5,308.5C 94.448,308.649 93.448,308.483 92.5,308C 95.1667,307 95.1667,306 92.5,305C 94.8912,303.691 94.8912,302.691 92.5,302C 92.489,299.317 92.489,296.65 92.5,294C 92.0946,293.055 91.428,292.388 90.5,292C 90.8333,291.667 91.1667,291.333 91.5,291C 90.7402,289.559 90.0736,288.059 89.5,286.5C 89.4793,284.398 89.8126,282.232 90.5,280C 89.6872,278.686 88.6872,277.519 87.5,276.5C 88.7468,274.958 88.7468,273.458 87.5,272C 90.4562,270.759 91.4562,268.759 90.5,266C 91.8453,263.258 92.8453,260.591 93.5,258C 92.4477,256.284 93.1144,255.284 95.5,255C 93.773,253.257 93.1064,251.424 93.5,249.5C 93.9767,248.522 94.6433,247.689 95.5,247C 94.8333,246.667 94.1667,246.333 93.5,246C 96.474,244.494 96.8073,242.828 94.5,241C 95.647,238.512 97.3137,236.512 99.5,235C 98.6433,234.311 97.9767,233.478 97.5,232.5C 98.7952,230.672 99.7952,228.672 100.5,226.5C 101.192,227.025 101.692,227.692 102,228.5C 103.371,226.959 104.871,225.625 106.5,224.5 Z"/></g>
</svg>  